<?xml version="1.0" encoding="utf-8"?>
<!-- Generator: Adobe Illustrator 18.1.0, SVG Export Plug-In . SVG Version: 6.00 Build 0)  -->
<svg version="1.1" xmlns="http://www.w3.org/2000/svg" xmlns:xlink="http://www.w3.org/1999/xlink" x="0px" y="0px" width="16px"
	 height="16.1px" viewBox="0 0 16 16.1" enable-background="new 0 0 16 16.1" xml:space="preserve">
<g id="Guides">
</g>
<g id="_x31_2_Col_Grid" opacity="0.1" enable-background="new    ">
</g>
<g id="Layer_3">
	<path id="magnifier-2" fill="#000000" d="M16,14.6l-4.2-4.2c0.8-1.1,1.2-2.4,1.2-3.8c0-3.6-2.9-6.5-6.5-6.5C2.9,0,0,2.9,0,6.5
		c0,3.6,2.9,6.5,6.5,6.5c1.4,0,2.6-0.4,3.7-1.1l4.2,4.2L16,14.6z M1.9,6.5C1.9,4,4,1.9,6.5,1.9s4.6,2.1,4.6,4.6s-2.1,4.6-4.6,4.6
		S1.9,9.1,1.9,6.5z"/>
</g>
</svg>
