<?xml version="1.0" encoding="utf-8"?>
<!-- Generator: Adobe Illustrator 18.1.0, SVG Export Plug-In . SVG Version: 6.00 Build 0)  -->
<svg version="1.1" id="Layer_1" xmlns="http://www.w3.org/2000/svg" xmlns:xlink="http://www.w3.org/1999/xlink" x="0px" y="0px"
	 width="160.6px" height="59.1px" viewBox="-315 277.9 160.6 59.1" enable-background="new -315 277.9 160.6 59.1"
	 xml:space="preserve">
<g>
	<g>
		<path fill="#ED422F" d="M-278.9,306.4c2.2-1.7,4-4.3,4-8.1v-0.1c0-3.3-1.3-6.1-3.7-7.9c-2.4-1.9-5.8-2.9-9.8-2.9h-18.7v40.2h19.2
			c4.4,0,8.2-0.9,10.9-2.8c2.7-1.9,4.3-4.9,4.3-8.6v-0.1C-272.6,311.1-275.1,308.2-278.9,306.4z M-285,299.7c0,1.2-0.4,1.8-1.2,2.3
			c-0.8,0.5-2.2,0.8-4,0.8h-6.9v-6.2h7.4c1.7,0,2.9,0.3,3.6,0.9c0.7,0.5,1,1.1,1,2.2l0,0H-285z M-297.1,311.7h8.8
			c2.1,0,3.4,0.4,4.2,0.9c0.8,0.6,1.1,1.2,1.1,2.3v0.1c0,1.2-0.4,1.8-1.2,2.4c-0.8,0.5-2.1,0.9-3.9,0.9h-9.1
			C-297.1,318.3-297.1,311.7-297.1,311.7z"/>
		<path fill="#ED422F" d="M-245.4,306.4c2.2-1.7,4-4.3,4-8.1v-0.1c0-3.3-1.3-6.1-3.7-7.9c-2.4-1.9-5.8-2.9-9.8-2.9h-18.8v40.2h19.2
			c4.4,0,8.2-0.9,11-2.8c2.7-1.9,4.3-4.9,4.3-8.6v-0.1C-239.2,311.1-241.8,308.2-245.4,306.4z M-251.6,299.7c0,1.2-0.4,1.8-1.2,2.3
			s-2.2,0.8-4,0.8h-6.9v-6.2h7.4c1.7,0,2.9,0.3,3.6,0.9C-252,298-251.7,298.6-251.6,299.7L-251.6,299.7L-251.6,299.7z M-249.6,314.9
			v0.1c0,1.2-0.4,1.8-1.2,2.4c-0.8,0.5-2.1,0.9-3.9,0.9h-9.1v-6.6h8.8c2.1,0,3.4,0.4,4.2,0.9C-249.9,313.2-249.6,313.9-249.6,314.9z
			"/>
		<path fill="#ED422F" d="M-209.1,293.1c-3.8-3.6-9.1-5.7-15.3-5.7h-15.9v40.2h15.9c6.2,0,11.6-2.2,15.3-5.8c3.8-3.6,6-8.7,6-14.3
			v-0.1C-203.1,301.7-205.4,296.7-209.1,293.1z M-213.8,307.4v0.1c-0.1,6.4-4.2,10.5-10.7,10.5h-5.6v-21.3h5.6
			C-217.9,296.8-213.9,301.1-213.8,307.4z"/>
		<path fill="#ED422F" d="M-168.4,292.7c-3.8-3.7-9.1-6-15.2-6c-6.1,0-11.5,2.3-15.3,6.1c-3.8,3.8-6.1,9-6.1,14.7v0.1
			c0,5.7,2.2,10.9,6,14.6s9.1,6,15.2,6l0,0c6.1,0,11.5-2.3,15.3-6.1c3.8-3.8,6.1-9,6.1-14.7v-0.1
			C-162.4,301.6-164.6,296.5-168.4,292.7z M-194.4,307.3c0-6.1,4.3-11,10.6-11s10.7,5,10.7,11.1v0.1c0,6.1-4.3,11-10.6,11
			s-10.7-5-10.7-11.1V307.3z"/>
	</g>
</g>
</svg>
