<?xml version="1.0" encoding="utf-8"?>
<!-- Generator: Adobe Illustrator 18.1.0, SVG Export Plug-In . SVG Version: 6.00 Build 0)  -->
<svg version="1.1" xmlns="http://www.w3.org/2000/svg" xmlns:xlink="http://www.w3.org/1999/xlink" x="0px" y="0px" width="479.2px"
	 height="195.9px" viewBox="0 0 479.2 195.9" enable-background="new 0 0 479.2 195.9" xml:space="preserve">
<g id="Guides">
</g>
<g id="_x31_2_Col_Grid" opacity="0.1" enable-background="new    ">
</g>
<g id="Layer_3">
	<g>
		<g>
			<rect x="80.2" y="41.1" fill="#FFFFFF" width="299.5" height="29.8"/>
			<g>
				<rect x="80.2" y="0.6" fill="#FFFFFF" width="299.5" height="29.8"/>
				<g>
					<path d="M123.5,22.6v7.8H99.4V0.5H110v22.2H123.5z"/>
					<path d="M156.3,22.6v7.8h-25.4V0.5h24.9v7.8h-14.3v3.7H153v7.2h-11.5v3.5H156.3z"/>
					<path d="M180.7,24.7h-8.1l-1.4,5.7h-10.5l9.7-29.9h12.7l9.7,29.9H182L180.7,24.7z M179.1,18.1l-2.4-10h-0.1l-1.2,5.1l-1.2,4.9
						H179.1z"/>
					<path d="M212,20.5h-2.9v9.9h-10.3V0.5H215c4,0,7,0.8,9,2.5c2,1.7,3.1,4.2,3.1,7.5c0,4.4-1.8,7.3-5.4,8.8l7.1,11.1h-11.5
						L212,20.5z M209.1,13.5h3.8c1.3,0,2.3-0.2,2.8-0.6c0.6-0.4,0.8-1.1,0.8-2.2c0-1-0.3-1.7-0.8-2.1c-0.6-0.4-1.5-0.6-2.8-0.6h-3.8
						V13.5z"/>
					<path d="M264.1,30.4h-11.4l-7.2-13.6l-1.6-3.7h-0.1l0.2,6.2v11.1h-9.2V0.5h11.4l7.2,13.7l1.6,3.6h0.1l-0.2-6.2V0.5h9.2V30.4z"
						/>
					<path d="M283.3,30.4h-10.6V0.5h10.6V30.4z"/>
					<path d="M321.2,30.4h-11.4l-7.2-13.6l-1.6-3.7h-0.1l0.2,6.2v11.1h-9.2V0.5h11.4l7.2,13.7l1.6,3.6h0.1l-0.2-6.2V0.5h9.2V30.4z"
						/>
					<path d="M344.3,13.5h13.9v16.9h-7l-0.4-3.4c-1.5,2.6-4.2,3.9-8.1,3.9c-2.6,0-5-0.6-7.1-1.7c-2.1-1.2-3.8-2.9-5-5.2
						c-1.2-2.3-1.8-5.1-1.8-8.4c0-4.9,1.4-8.7,4.1-11.4c2.7-2.7,6.5-4.1,11.4-4.1c3.7,0,6.7,0.6,8.9,1.9c2.2,1.3,3.9,3.4,5.1,6.3
						l-9.8,3.5c-0.4-2.5-1.6-3.8-3.8-3.8c-1.8,0-3,0.6-3.9,1.8c-0.8,1.2-1.2,3.1-1.2,5.7c0,2.8,0.4,4.8,1.3,6
						c0.9,1.2,2.3,1.8,4.1,1.8c1.3,0,2.4-0.3,3.2-0.8c0.8-0.5,1.2-1.3,1.2-2.3v0h-5V13.5z"/>
					<path d="M143.5,63.1v7.8h-24.1V41h10.6v22.2H143.5z"/>
					<path d="M161.4,70.9h-10.6V41h10.6V70.9z"/>
					<path d="M170.1,41h17.1c3.8,0,6.6,0.7,8.4,2c1.8,1.3,2.8,3.3,2.8,6c0,1.8-0.6,3.4-1.7,4.6c-1.1,1.2-2.8,2-5.1,2.3v0
						c2.5,0.3,4.4,1,5.7,2.3c1.2,1.2,1.9,2.9,1.9,4.9c0,2.6-0.9,4.6-2.7,5.9s-4.5,2-8.1,2h-18.3V41z M184.8,52.6
						c1.9,0,2.8-0.7,2.8-2.2c0-1.5-0.9-2.2-2.8-2.2h-4.6v4.4H184.8z M185.6,64c1.9,0,2.8-0.7,2.8-2.2c0-1.4-0.9-2.1-2.8-2.1h-5.4V64
						H185.6z"/>
					<path d="M219.3,61h-2.9v9.9h-10.3V41h16.2c4,0,7,0.8,9,2.5c2,1.7,3.1,4.2,3.1,7.5c0,4.4-1.8,7.3-5.4,8.8l7.1,11.1h-11.5
						L219.3,61z M216.4,54h3.8c1.3,0,2.3-0.2,2.8-0.6c0.6-0.4,0.8-1.1,0.8-2.2c0-1-0.3-1.7-0.8-2.1c-0.6-0.4-1.5-0.6-2.8-0.6h-3.8
						V54z"/>
					<path d="M259.4,65.2h-8.1l-1.4,5.7h-10.5l9.7-29.9h12.7l9.7,29.9h-10.8L259.4,65.2z M257.9,58.6l-2.4-10h-0.1l-1.2,5.1
						l-1.2,4.9H257.9z"/>
					<path d="M290.7,61h-2.9v9.9h-10.3V41h16.2c4,0,7,0.8,9,2.5c2,1.7,3.1,4.2,3.1,7.5c0,4.4-1.8,7.3-5.4,8.8l7.1,11.1H296L290.7,61
						z M287.8,54h3.8c1.3,0,2.3-0.2,2.8-0.6c0.6-0.4,0.8-1.1,0.8-2.2c0-1-0.3-1.7-0.8-2.1c-0.6-0.4-1.5-0.6-2.8-0.6h-3.8V54z"/>
					<path d="M330.3,60.5v10.4h-10.6V60.5L309.3,41h10.5l3.2,6.8l2.1,5.4l2.1-5.4l3.2-6.8h10.4L330.3,60.5z"/>
				</g>
			</g>
		</g>
		<line fill="none" stroke="#FFFFFF" stroke-width="2" stroke-miterlimit="10" x1="0" y1="185" x2="278" y2="185"/>
		<line fill="none" stroke="#FFFFFF" stroke-width="2" stroke-miterlimit="10" x1="192.8" y1="155.8" x2="479.2" y2="155.8"/>
		<g>
			<path fill="#FFFFFF" d="M10,157.5H8.1v6.4H1.5v-19.2h10.4c2.6,0,4.5,0.5,5.8,1.6c1.3,1.1,2,2.7,2,4.8c0,2.8-1.2,4.7-3.5,5.7
				l4.5,7.1h-7.4L10,157.5z M8.1,153h2.4c0.9,0,1.5-0.1,1.8-0.4c0.4-0.3,0.5-0.7,0.5-1.4c0-0.6-0.2-1.1-0.5-1.4
				c-0.4-0.3-1-0.4-1.8-0.4H8.1V153z"/>
			<path fill="#FFFFFF" d="M43,158.9v5H26.7v-19.2h16v5h-9.2v2.4h7.4v4.6h-7.4v2.3H43z"/>
			<path fill="#FFFFFF" d="M58.7,164.2c-2,0-3.8-0.4-5.2-1.2s-2.6-1.9-3.4-3.4c-0.8-1.5-1.2-3.3-1.2-5.3c0-2.1,0.4-3.9,1.2-5.3
				s1.9-2.6,3.4-3.4c1.5-0.8,3.2-1.2,5.2-1.2c2.3,0,4.2,0.5,5.8,1.4c1.6,1,2.6,2.4,3,4.4l-5.8,2.3c-0.2-1.2-0.4-2-0.8-2.4
				c-0.4-0.4-1-0.6-1.9-0.6c-1,0-1.8,0.4-2.3,1.2c-0.5,0.8-0.8,2-0.8,3.6s0.2,2.9,0.7,3.6c0.5,0.8,1.2,1.2,2.2,1.2
				c0.9,0,1.6-0.2,2-0.6c0.4-0.4,0.7-1.1,0.8-2l6,1.5C66.6,162.1,63.7,164.2,58.7,164.2z"/>
			<path fill="#FFFFFF" d="M90.3,158.9v5H74v-19.2h16v5h-9.2v2.4h7.4v4.6h-7.4v2.3H90.3z"/>
			<path fill="#FFFFFF" d="M115.7,163.9h-7.3l-4.6-8.7l-1-2.4h-0.1l0.1,4v7.1h-5.9v-19.2h7.3l4.6,8.8l1,2.3h0.1l-0.1-4v-7.1h5.9
				V163.9z"/>
			<path fill="#FFFFFF" d="M141.2,149.6h-6v14.3h-6.8v-14.3h-6v-5h18.8V149.6z"/>
			<path fill="#FFFFFF" d="M163.4,158.9v5h-15.5v-19.2h6.8v14.3H163.4z"/>
			<path fill="#FFFFFF" d="M178.6,157.2v6.7h-6.8v-6.7l-6.7-12.6h6.8l2,4.4l1.4,3.5l1.4-3.5l2-4.4h6.7L178.6,157.2z"/>
			<path fill="#FFFFFF" d="M308.2,187.3c0,5.7-3.1,8.6-9.3,8.6c-6.2,0-9.3-2.9-9.3-8.6v-11h6.8v11.5c0,1,0.2,1.7,0.6,2.2
				c0.4,0.5,1,0.7,1.9,0.7c0.8,0,1.4-0.2,1.9-0.7c0.4-0.5,0.6-1.2,0.6-2.2v-11.5h6.8V187.3z"/>
			<path fill="#FFFFFF" d="M333.6,183.1c0,2.1-0.7,3.7-2,4.8c-1.4,1.1-3.4,1.6-6,1.6h-3.4v6.1h-6.8v-19.2h10.2
				C330.9,176.4,333.6,178.6,333.6,183.1z M326.2,184.4c0.4-0.3,0.6-0.7,0.6-1.4c0-0.6-0.2-1.1-0.6-1.4s-1-0.4-1.8-0.4h-2.3v3.6h2.3
				C325.2,184.8,325.8,184.7,326.2,184.4z"/>
			<path fill="#FFFFFF" d="M356.1,190.6v5h-15.5v-19.2h6.8v14.3H356.1z"/>
			<path fill="#FFFFFF" d="M378.6,178.7c1.7,1.7,2.6,4.2,2.6,7.3s-0.9,5.6-2.6,7.3c-1.7,1.7-4.1,2.6-7.2,2.6c-2,0-3.8-0.4-5.2-1.2
				c-1.5-0.8-2.6-1.9-3.4-3.4c-0.8-1.5-1.2-3.3-1.2-5.3c0-2.1,0.4-3.9,1.2-5.3s1.9-2.6,3.4-3.4c1.5-0.8,3.2-1.2,5.2-1.2
				C374.5,176.1,376.9,176.9,378.6,178.7z M369.3,182.3c-0.5,0.8-0.7,2-0.7,3.7s0.2,2.9,0.7,3.7c0.5,0.8,1.2,1.2,2.2,1.2
				c1,0,1.7-0.4,2.2-1.2c0.4-0.8,0.7-2,0.7-3.7s-0.2-2.9-0.7-3.7c-0.4-0.8-1.2-1.2-2.2-1.2C370.5,181.2,369.7,181.5,369.3,182.3z"/>
			<path fill="#FFFFFF" d="M398.5,191.9h-5.2l-0.9,3.7h-6.8l6.2-19.2h8.2l6.3,19.2h-6.9L398.5,191.9z M397.5,187.7l-1.5-6.4h-0.1
				l-0.8,3.3l-0.8,3.1H397.5z"/>
			<path fill="#FFFFFF" d="M428.4,178.8c1.5,1.7,2.3,4,2.3,7.1c0,3.1-0.8,5.5-2.3,7.1c-1.5,1.7-3.8,2.5-6.8,2.5h-9.4v-19.2h9.4
				C424.6,176.4,426.9,177.2,428.4,178.8z M423.1,189.6c0.4-0.7,0.7-2,0.7-3.7s-0.2-2.9-0.7-3.7c-0.4-0.7-1.3-1.1-2.5-1.1h-1.7v9.6
				h1.7C421.8,190.8,422.7,190.4,423.1,189.6z"/>
			<path fill="#FFFFFF" d="M454,190.6v5h-16.3v-19.2h16v5h-9.2v2.4h7.4v4.6h-7.4v2.3H454z"/>
			<path fill="#FFFFFF" d="M476.8,178.8c1.5,1.7,2.3,4,2.3,7.1c0,3.1-0.8,5.5-2.3,7.1c-1.5,1.7-3.8,2.5-6.8,2.5h-9.4v-19.2h9.4
				C473,176.4,475.3,177.2,476.8,178.8z M471.5,189.6c0.4-0.7,0.7-2,0.7-3.7s-0.2-2.9-0.7-3.7c-0.4-0.7-1.3-1.1-2.5-1.1h-1.7v9.6
				h1.7C470.3,190.8,471.1,190.4,471.5,189.6z"/>
		</g>
	</g>
</g>
</svg>
